<svg width="142" height="36" viewBox="0 0 142 36" fill="none" xmlns="http://www.w3.org/2000/svg">
<path d="M35.0617 32V6.08H45.3397C47.0917 6.08 48.5257 6.434 49.6417 7.142C50.7697 7.838 51.6037 8.732 52.1437 9.824C52.6957 10.916 52.9717 12.044 52.9717 13.208C52.9717 14.636 52.6297 15.848 51.9457 16.844C51.2737 17.84 50.3557 18.512 49.1917 18.86V17.96C50.8237 18.332 52.0597 19.106 52.8997 20.282C53.7517 21.458 54.1777 22.796 54.1777 24.296C54.1777 25.832 53.8837 27.176 53.2957 28.328C52.7077 29.48 51.8317 30.38 50.6677 31.028C49.5157 31.676 48.0877 32 46.3837 32H35.0617ZM39.4537 27.914H45.8437C46.5997 27.914 47.2777 27.764 47.8777 27.464C48.4777 27.152 48.9457 26.72 49.2817 26.168C49.6297 25.604 49.8037 24.938 49.8037 24.17C49.8037 23.474 49.6537 22.85 49.3537 22.298C49.0537 21.746 48.6157 21.308 48.0397 20.984C47.4637 20.648 46.7737 20.48 45.9697 20.48H39.4537V27.914ZM39.4537 16.43H45.2857C45.9097 16.43 46.4677 16.31 46.9597 16.07C47.4517 15.83 47.8417 15.476 48.1297 15.008C48.4177 14.54 48.5617 13.964 48.5617 13.28C48.5617 12.38 48.2737 11.63 47.6977 11.03C47.1217 10.43 46.3177 10.13 45.2857 10.13H39.4537V16.43ZM66.3586 32.54C64.4146 32.54 62.7166 32.102 61.2646 31.226C59.8126 30.35 58.6846 29.144 57.8806 27.608C57.0886 26.06 56.6926 24.284 56.6926 22.28C56.6926 20.24 57.1006 18.452 57.9166 16.916C58.7326 15.38 59.8666 14.18 61.3186 13.316C62.7706 12.452 64.4506 12.02 66.3586 12.02C68.3146 12.02 70.0186 12.458 71.4706 13.334C72.9226 14.21 74.0506 15.422 74.8546 16.97C75.6586 18.506 76.0606 20.276 76.0606 22.28C76.0606 24.296 75.6526 26.078 74.8366 27.626C74.0326 29.162 72.9046 30.368 71.4526 31.244C70.0006 32.108 68.3026 32.54 66.3586 32.54ZM66.3586 28.472C68.0866 28.472 69.3706 27.896 70.2106 26.744C71.0506 25.592 71.4706 24.104 71.4706 22.28C71.4706 20.396 71.0446 18.896 70.1926 17.78C69.3406 16.652 68.0626 16.088 66.3586 16.088C65.1946 16.088 64.2346 16.352 63.4786 16.88C62.7346 17.396 62.1826 18.122 61.8226 19.058C61.4626 19.982 61.2826 21.056 61.2826 22.28C61.2826 24.164 61.7086 25.67 62.5606 26.798C63.4246 27.914 64.6906 28.472 66.3586 28.472ZM80.3865 32V5.54H84.7245V32H80.3865ZM97.9104 32.54C96.1224 32.54 94.5624 32.09 93.2304 31.19C91.8984 30.29 90.8664 29.066 90.1344 27.518C89.4024 25.97 89.0364 24.224 89.0364 22.28C89.0364 20.312 89.4024 18.56 90.1344 17.024C90.8784 15.476 91.9284 14.258 93.2844 13.37C94.6404 12.47 96.2364 12.02 98.0724 12.02C99.9204 12.02 101.468 12.47 102.716 13.37C103.976 14.258 104.93 15.476 105.578 17.024C106.226 18.572 106.55 20.324 106.55 22.28C106.55 24.212 106.226 25.958 105.578 27.518C104.93 29.066 103.964 30.29 102.68 31.19C101.396 32.09 99.8064 32.54 97.9104 32.54ZM98.5764 28.652C99.7404 28.652 100.676 28.388 101.384 27.86C102.104 27.32 102.626 26.57 102.95 25.61C103.286 24.65 103.454 23.54 103.454 22.28C103.454 21.008 103.286 19.898 102.95 18.95C102.626 17.99 102.116 17.246 101.42 16.718C100.724 16.178 99.8244 15.908 98.7204 15.908C97.5564 15.908 96.5964 16.196 95.8404 16.772C95.0844 17.336 94.5264 18.104 94.1664 19.076C93.8064 20.036 93.6264 21.104 93.6264 22.28C93.6264 23.468 93.8004 24.548 94.1484 25.52C94.5084 26.48 95.0544 27.242 95.7864 27.806C96.5184 28.37 97.4484 28.652 98.5764 28.652ZM103.454 32V18.356H102.914V6.08H107.288V32H103.454ZM120.921 32.54C118.977 32.54 117.279 32.102 115.827 31.226C114.375 30.35 113.247 29.144 112.443 27.608C111.651 26.06 111.255 24.284 111.255 22.28C111.255 20.24 111.663 18.452 112.479 16.916C113.295 15.38 114.429 14.18 115.881 13.316C117.333 12.452 119.013 12.02 120.921 12.02C122.877 12.02 124.581 12.458 126.033 13.334C127.485 14.21 128.613 15.422 129.417 16.97C130.221 18.506 130.623 20.276 130.623 22.28C130.623 24.296 130.215 26.078 129.399 27.626C128.595 29.162 127.467 30.368 126.015 31.244C124.563 32.108 122.865 32.54 120.921 32.54ZM120.921 28.472C122.649 28.472 123.933 27.896 124.773 26.744C125.613 25.592 126.033 24.104 126.033 22.28C126.033 20.396 125.607 18.896 124.755 17.78C123.903 16.652 122.625 16.088 120.921 16.088C119.757 16.088 118.797 16.352 118.041 16.88C117.297 17.396 116.745 18.122 116.385 19.058C116.025 19.982 115.845 21.056 115.845 22.28C115.845 24.164 116.271 25.67 117.123 26.798C117.987 27.914 119.253 28.472 120.921 28.472Z" fill="#0A2640"/>
<path d="M0 18H15.1016C19.2873 18 22.6806 21.3932 22.6806 25.5789V25.5789C22.6806 29.7647 19.2873 33.1579 15.1016 33.1579H0V18Z" fill="#0A2640"/>
<path d="M0 4.73682H10.0936C13.2329 4.73682 15.7778 7.28172 15.7778 10.421V10.421C15.7778 13.5603 13.2329 16.1052 10.0936 16.1052H0V4.73682Z" fill="#0A2640"/>
</svg>
