<svg width="116" height="30" viewBox="0 0 116 30" fill="none" xmlns="http://www.w3.org/2000/svg">
<path d="M28.8234 27V3.96H37.9594C39.5167 3.96 40.7914 4.27467 41.7834 4.904C42.786 5.52267 43.5274 6.31733 44.0074 7.288C44.498 8.25867 44.7434 9.26133 44.7434 10.296C44.7434 11.5653 44.4394 12.6427 43.8314 13.528C43.234 14.4133 42.418 15.0107 41.3834 15.32V14.52C42.834 14.8507 43.9327 15.5387 44.6794 16.584C45.4367 17.6293 45.8154 18.8187 45.8154 20.152C45.8154 21.5173 45.554 22.712 45.0314 23.736C44.5087 24.76 43.73 25.56 42.6954 26.136C41.6714 26.712 40.402 27 38.8874 27H28.8234ZM32.7274 23.368H38.4074C39.0794 23.368 39.682 23.2347 40.2154 22.968C40.7487 22.6907 41.1647 22.3067 41.4634 21.816C41.7727 21.3147 41.9274 20.7227 41.9274 20.04C41.9274 19.4213 41.794 18.8667 41.5274 18.376C41.2607 17.8853 40.8714 17.496 40.3594 17.208C39.8474 16.9093 39.234 16.76 38.5194 16.76H32.7274V23.368ZM32.7274 13.16H37.9114C38.466 13.16 38.962 13.0533 39.3994 12.84C39.8367 12.6267 40.1834 12.312 40.4394 11.896C40.6954 11.48 40.8234 10.968 40.8234 10.36C40.8234 9.56 40.5674 8.89333 40.0554 8.36C39.5434 7.82667 38.8287 7.56 37.9114 7.56H32.7274V13.16ZM56.6429 27.48C54.9149 27.48 53.4055 27.0907 52.1149 26.312C50.8242 25.5333 49.8215 24.4613 49.1069 23.096C48.4029 21.72 48.0509 20.1413 48.0509 18.36C48.0509 16.5467 48.4135 14.9573 49.1389 13.592C49.8642 12.2267 50.8722 11.16 52.1629 10.392C53.4535 9.624 54.9469 9.24 56.6429 9.24C58.3815 9.24 59.8962 9.62933 61.1869 10.408C62.4775 11.1867 63.4802 12.264 64.1949 13.64C64.9095 15.0053 65.2669 16.5787 65.2669 18.36C65.2669 20.152 64.9042 21.736 64.1789 23.112C63.4642 24.4773 62.4615 25.5493 61.1709 26.328C59.8802 27.096 58.3709 27.48 56.6429 27.48ZM56.6429 23.864C58.1789 23.864 59.3202 23.352 60.0669 22.328C60.8135 21.304 61.1869 19.9813 61.1869 18.36C61.1869 16.6853 60.8082 15.352 60.0509 14.36C59.2935 13.3573 58.1575 12.856 56.6429 12.856C55.6082 12.856 54.7549 13.0907 54.0829 13.56C53.4215 14.0187 52.9309 14.664 52.6109 15.496C52.2909 16.3173 52.1309 17.272 52.1309 18.36C52.1309 20.0347 52.5095 21.3733 53.2669 22.376C54.0349 23.368 55.1602 23.864 56.6429 23.864ZM69.1121 27V3.48H72.9681V27H69.1121ZM84.6889 27.48C83.0995 27.48 81.7129 27.08 80.5289 26.28C79.3449 25.48 78.4275 24.392 77.7769 23.016C77.1262 21.64 76.8009 20.088 76.8009 18.36C76.8009 16.6107 77.1262 15.0533 77.7769 13.688C78.4382 12.312 79.3715 11.2293 80.5769 10.44C81.7822 9.64 83.2009 9.24 84.8329 9.24C86.4755 9.24 87.8515 9.64 88.9609 10.44C90.0809 11.2293 90.9289 12.312 91.5049 13.688C92.0809 15.064 92.3689 16.6213 92.3689 18.36C92.3689 20.0773 92.0809 21.6293 91.5049 23.016C90.9289 24.392 90.0702 25.48 88.9289 26.28C87.7875 27.08 86.3742 27.48 84.6889 27.48ZM85.2809 24.024C86.3155 24.024 87.1475 23.7893 87.7769 23.32C88.4169 22.84 88.8809 22.1733 89.1689 21.32C89.4675 20.4667 89.6169 19.48 89.6169 18.36C89.6169 17.2293 89.4675 16.2427 89.1689 15.4C88.8809 14.5467 88.4275 13.8853 87.8089 13.416C87.1902 12.936 86.3902 12.696 85.4089 12.696C84.3742 12.696 83.5209 12.952 82.8489 13.464C82.1769 13.9653 81.6809 14.648 81.3609 15.512C81.0409 16.3653 80.8809 17.3147 80.8809 18.36C80.8809 19.416 81.0355 20.376 81.3449 21.24C81.6649 22.0933 82.1502 22.7707 82.8009 23.272C83.4515 23.7733 84.2782 24.024 85.2809 24.024ZM89.6169 27V14.872H89.1369V3.96H93.0249V27H89.6169ZM105.143 27.48C103.415 27.48 101.906 27.0907 100.615 26.312C99.3242 25.5333 98.3215 24.4613 97.6069 23.096C96.9029 21.72 96.5509 20.1413 96.5509 18.36C96.5509 16.5467 96.9135 14.9573 97.6389 13.592C98.3642 12.2267 99.3722 11.16 100.663 10.392C101.954 9.624 103.447 9.24 105.143 9.24C106.882 9.24 108.396 9.62933 109.687 10.408C110.978 11.1867 111.98 12.264 112.695 13.64C113.41 15.0053 113.767 16.5787 113.767 18.36C113.767 20.152 113.404 21.736 112.679 23.112C111.964 24.4773 110.962 25.5493 109.671 26.328C108.38 27.096 106.871 27.48 105.143 27.48ZM105.143 23.864C106.679 23.864 107.82 23.352 108.567 22.328C109.314 21.304 109.687 19.9813 109.687 18.36C109.687 16.6853 109.308 15.352 108.551 14.36C107.794 13.3573 106.658 12.856 105.143 12.856C104.108 12.856 103.255 13.0907 102.583 13.56C101.922 14.0187 101.431 14.664 101.111 15.496C100.791 16.3173 100.631 17.272 100.631 18.36C100.631 20.0347 101.01 21.3733 101.767 22.376C102.535 23.368 103.66 23.864 105.143 23.864Z" fill="#0A2640"/>
<path d="M0 15H12.212C15.7001 15 18.5278 17.8277 18.5278 21.3158V21.3158C18.5278 24.8039 15.7001 27.6316 12.212 27.6316H0V15Z" fill="#0A2640"/>
<path d="M0 3.94727H8.15205C10.7681 3.94727 12.8889 6.06802 12.8889 8.68411V8.68411C12.8889 11.3002 10.7681 13.4209 8.15205 13.4209H0V3.94727Z" fill="#0A2640"/>
</svg>
