<svg width="76" height="20" viewBox="0 0 76 20" fill="none" xmlns="http://www.w3.org/2000/svg">
<path d="M18.8867 18V2.88H24.8822C25.9042 2.88 26.7407 3.0865 27.3917 3.4995C28.0497 3.9055 28.5362 4.427 28.8512 5.064C29.1732 5.701 29.3342 6.359 29.3342 7.038C29.3342 7.871 29.1347 8.578 28.7357 9.159C28.3437 9.74 27.8082 10.132 27.1292 10.335V9.81C28.0812 10.027 28.8022 10.4785 29.2922 11.1645C29.7892 11.8505 30.0377 12.631 30.0377 13.506C30.0377 14.402 29.8662 15.186 29.5232 15.858C29.1802 16.53 28.6692 17.055 27.9902 17.433C27.3182 17.811 26.4852 18 25.4912 18H18.8867ZM21.4487 15.6165H25.1762C25.6172 15.6165 26.0127 15.529 26.3627 15.354C26.7127 15.172 26.9857 14.92 27.1817 14.598C27.3847 14.269 27.4862 13.8805 27.4862 13.4325C27.4862 13.0265 27.3987 12.6625 27.2237 12.3405C27.0487 12.0185 26.7932 11.763 26.4572 11.574C26.1212 11.378 25.7187 11.28 25.2497 11.28H21.4487V15.6165ZM21.4487 8.9175H24.8507C25.2147 8.9175 25.5402 8.8475 25.8272 8.7075C26.1142 8.5675 26.3417 8.361 26.5097 8.088C26.6777 7.815 26.7617 7.479 26.7617 7.08C26.7617 6.555 26.5937 6.1175 26.2577 5.7675C25.9217 5.4175 25.4527 5.2425 24.8507 5.2425H21.4487V8.9175ZM37.1433 18.315C36.0093 18.315 35.0188 18.0595 34.1718 17.5485C33.3248 17.0375 32.6668 16.334 32.1978 15.438C31.7358 14.535 31.5048 13.499 31.5048 12.33C31.5048 11.14 31.7428 10.097 32.2188 9.201C32.6948 8.305 33.3563 7.605 34.2033 7.101C35.0503 6.597 36.0303 6.345 37.1433 6.345C38.2843 6.345 39.2783 6.6005 40.1253 7.1115C40.9723 7.6225 41.6303 8.3295 42.0993 9.2325C42.5683 10.1285 42.8028 11.161 42.8028 12.33C42.8028 13.506 42.5648 14.5455 42.0888 15.4485C41.6198 16.3445 40.9618 17.048 40.1148 17.559C39.2678 18.063 38.2773 18.315 37.1433 18.315ZM37.1433 15.942C38.1513 15.942 38.9003 15.606 39.3903 14.934C39.8803 14.262 40.1253 13.394 40.1253 12.33C40.1253 11.231 39.8768 10.356 39.3798 9.705C38.8828 9.047 38.1373 8.718 37.1433 8.718C36.4643 8.718 35.9043 8.872 35.4633 9.18C35.0293 9.481 34.7073 9.9045 34.4973 10.4505C34.2873 10.9895 34.1823 11.616 34.1823 12.33C34.1823 13.429 34.4308 14.3075 34.9278 14.9655C35.4318 15.6165 36.1703 15.942 37.1433 15.942ZM45.3262 18V2.565H47.8567V18H45.3262ZM55.5485 18.315C54.5055 18.315 53.5955 18.0525 52.8185 17.5275C52.0415 17.0025 51.4395 16.2885 51.0125 15.3855C50.5855 14.4825 50.372 13.464 50.372 12.33C50.372 11.182 50.5855 10.16 51.0125 9.264C51.4465 8.361 52.059 7.6505 52.85 7.1325C53.641 6.6075 54.572 6.345 55.643 6.345C56.721 6.345 57.624 6.6075 58.352 7.1325C59.087 7.6505 59.6435 8.361 60.0215 9.264C60.3995 10.167 60.5885 11.189 60.5885 12.33C60.5885 13.457 60.3995 14.4755 60.0215 15.3855C59.6435 16.2885 59.08 17.0025 58.331 17.5275C57.582 18.0525 56.6545 18.315 55.5485 18.315ZM55.937 16.047C56.616 16.047 57.162 15.893 57.575 15.585C57.995 15.27 58.2995 14.8325 58.4885 14.2725C58.6845 13.7125 58.7825 13.065 58.7825 12.33C58.7825 11.588 58.6845 10.9405 58.4885 10.3875C58.2995 9.8275 58.002 9.3935 57.596 9.0855C57.19 8.7705 56.665 8.613 56.021 8.613C55.342 8.613 54.782 8.781 54.341 9.117C53.9 9.446 53.5745 9.894 53.3645 10.461C53.1545 11.021 53.0495 11.644 53.0495 12.33C53.0495 13.023 53.151 13.653 53.354 14.22C53.564 14.78 53.8825 15.2245 54.3095 15.5535C54.7365 15.8825 55.279 16.047 55.937 16.047ZM58.7825 18V10.041H58.4675V2.88H61.019V18H58.7825ZM68.9714 18.315C67.8374 18.315 66.8469 18.0595 65.9999 17.5485C65.1529 17.0375 64.4949 16.334 64.0259 15.438C63.5639 14.535 63.3329 13.499 63.3329 12.33C63.3329 11.14 63.5709 10.097 64.0469 9.201C64.5229 8.305 65.1844 7.605 66.0314 7.101C66.8784 6.597 67.8584 6.345 68.9714 6.345C70.1124 6.345 71.1064 6.6005 71.9534 7.1115C72.8004 7.6225 73.4584 8.3295 73.9274 9.2325C74.3964 10.1285 74.6309 11.161 74.6309 12.33C74.6309 13.506 74.3929 14.5455 73.9169 15.4485C73.4479 16.3445 72.7899 17.048 71.9429 17.559C71.0959 18.063 70.1054 18.315 68.9714 18.315ZM68.9714 15.942C69.9794 15.942 70.7284 15.606 71.2184 14.934C71.7084 14.262 71.9534 13.394 71.9534 12.33C71.9534 11.231 71.7049 10.356 71.2079 9.705C70.7109 9.047 69.9654 8.718 68.9714 8.718C68.2924 8.718 67.7324 8.872 67.2914 9.18C66.8574 9.481 66.5354 9.9045 66.3254 10.4505C66.1154 10.9895 66.0104 11.616 66.0104 12.33C66.0104 13.429 66.2589 14.3075 66.7559 14.9655C67.2599 15.6165 67.9984 15.942 68.9714 15.942Z" fill="#0A2640"/>
<path d="M0 10H7.92836C10.2538 10 12.1389 11.8851 12.1389 14.2105C12.1389 16.5359 10.2538 18.4211 7.92836 18.4211H0V10Z" fill="#0A2640"/>
<path d="M0 2.63159H5.28655C7.03061 2.63159 8.44444 4.04543 8.44444 5.78949C8.44444 7.53354 7.03061 8.94738 5.28655 8.94738H0V2.63159Z" fill="#0A2640"/>
</svg>
